<?xml version="1.0" encoding="utf-8"?>
<!-- Generator: Adobe Illustrator 24.0.2, SVG Export Plug-In . SVG Version: 6.00 Build 0)  -->
<svg version="1.1" xmlns="http://www.w3.org/2000/svg" xmlns:xlink="http://www.w3.org/1999/xlink" x="0px" y="0px"
	 viewBox="0 0 5016.99 2575.56" style="enable-background:new 0 0 5016.99 2575.56;" xml:space="preserve">
<style type="text/css">
	.st0{fill:#004370;}
	.st1{fill:#36D8E0;}
	.st2{fill:none;}
	.st3{fill:#0674A7;}
	.st4{fill:#11A7CC;}
	.st5{fill:#78DBEE;}
</style>
<g id="Guides_For_Artboard_2_">
</g>
<g id="Guides_For_Artboard_1_">
</g>
<g id="Guides_For_Artboard">
</g>
<g id="_1">
</g>
<g id="Layer_2">
	<g>
		<g>
			<path class="st0" d="M1119.95,1165.49c-2.45-11.13-6.54-20.19-12.24-27.16c-5.72-6.96-11.63-12.02-17.75-15.15
				c-6.12-3.13-12.45-5.22-18.98-6.27c-6.54-1.04-11.84-1.57-15.92-1.57c-20.41,0-35.93,5.4-46.53,16.19
				c-10.62,10.81-15.92,22.12-15.92,33.96c0,8.36,1.84,15.33,5.51,20.9c3.67,5.58,9.99,10.63,18.98,15.15
				c8.97,4.54,20.81,8.88,35.51,13.06c14.69,4.18,33.06,9.4,55.1,15.67c21.22,5.58,43.04,12.19,65.5,19.85
				c22.44,7.67,42.85,18.12,61.22,31.34c18.37,13.24,33.46,29.61,45.3,49.11c11.82,19.51,17.75,43.88,17.75,73.14
				c0,32.75-6.94,61.64-20.81,86.72c-13.89,25.08-32.04,46.33-54.49,63.73c-22.46,17.42-47.75,30.48-75.91,39.18
				c-28.16,8.7-56.93,13.06-86.32,13.06c-17.14,0-34.9-1.4-53.26-4.18c-18.37-2.79-36.33-7.15-53.87-13.06
				c-17.56-5.91-34.7-13.75-51.42-23.51c-16.74-9.75-31.64-21.58-44.69-35.52c-21.24-22.28-34.7-44.23-40.4-65.82
				c-5.72-21.58-9.39-41.43-11.02-59.55H971.8c1.63,6.27,4.08,13.76,7.35,22.46c3.25,8.72,8.15,16.9,14.69,24.55
				c6.52,7.67,15.09,14.1,25.71,19.33c10.6,5.22,24.49,7.84,41.63,7.84c13.05,0,24.28-1.91,33.67-5.75
				c9.37-3.82,16.93-8.7,22.65-14.63c5.7-5.91,9.99-12.18,12.86-18.81c2.85-6.61,4.29-13.06,4.29-19.33
				c0-10.45-2.45-19.33-7.35-26.64c-4.9-7.31-13.28-14.11-25.1-20.37c-11.84-6.27-27.55-12.36-47.14-18.28
				c-19.59-5.91-44.08-13.06-73.46-21.42c-19.59-5.57-38.38-12.88-56.32-21.94c-17.96-9.04-34.09-20.37-48.36-33.96
				c-14.29-13.58-25.71-29.42-34.28-47.54c-8.57-18.1-12.86-39-12.86-62.69c0-27.85,6.73-52.93,20.2-75.23
				c13.47-22.28,31.01-41.27,52.65-56.94c21.62-15.67,46.11-27.51,73.46-35.52c27.34-8,54.49-12.02,81.42-12.02
				c25.29,0,50.81,3.84,76.52,11.49c25.71,7.67,48.98,18.99,69.79,33.96c20.81,14.99,38.15,33.61,52.04,55.9
				c13.87,22.3,21.62,47.72,23.26,76.27H1119.95z"/>
			<path class="st0" d="M2317.38,814.43h162.84v773.17h-162.84V814.43z"/>
			<path class="st0" d="M2671.21,1007.72h176.31l164.07,384.49h3.67l154.27-384.49h178.76l-275.49,579.88h-127.34L2671.21,1007.72z"
				/>
			<path class="st1" d="M3540.52,814.43h162.84V941.9h-162.84V814.43z M3540.52,1007.72h162.84v579.88h-162.84V1007.72z"/>
			<path class="st1" d="M3997.21,1131.01h-79.59v-123.29h79.59V814.43h162.84v193.29H4258v123.29h-97.95v456.59h-162.84V1131.01z"/>
		</g>
		<g>
			<polygon class="st2" points="1823.69,1424.84 1807.61,1424.84 1807.61,1424.84 1823.69,1424.84 			"/>
			<path class="st3" d="M2129.11,1287.28l-0.1,3.5c-0.06,1.31-0.1,2.69-0.18,3.94c-0.14,2.53-0.31,5.06-0.54,7.58
				c-0.45,5.04-1.07,10.06-1.88,15.03c-1.62,9.95-3.87,19.75-6.87,29.22c-5.94,18.97-14.35,36.75-24.65,52.73
				c-10.26,16.03-22.23,30.4-35.24,43.14c-13.04,12.75-27.22,23.73-41.98,33.3c-29.58,19.14-61.69,32.2-94.42,40.38
				c-16.37,4.12-32.94,6.97-49.56,8.62c-16.62,1.67-33.28,2.24-49.88,1.73c-33.2-1.06-66.21-6.29-98.06-16.17
				c-15.94-4.87-31.56-10.98-46.72-18.25c-15.19-7.21-29.84-15.8-43.84-25.54c-13.99-9.77-27.21-20.93-39.33-33.45
				c-12.14-12.49-23.15-26.41-32.45-41.7c-9.36-15.23-17-31.86-22.26-49.47c-5.34-17.57-8.26-36.11-8.52-54.76
				c-0.32-18.65,2.01-37.4,6.84-55.36c4.76-17.99,12-35.16,21.02-51.04c8.98-15.92,19.79-30.54,31.8-43.77
				c12.02-13.24,25.28-25.04,39.29-35.56c28.08-21.02,59.32-36.64,91.82-47.32c32.52-10.64,66.38-16.51,100.4-17.37
				c34-0.87,68.32,2.7,101.72,11.8c16.7,4.5,33.18,10.31,49.21,17.57c16.03,7.25,31.68,15.81,46.56,26.03
				c14.87,10.2,29.11,21.83,42.13,35.21c13,13.38,24.85,28.44,34.79,45.17c9.94,16.7,17.98,35.07,23.28,54.51
				c5.31,19.43,7.92,39.84,7.62,60.12V1287.28z M2095.63,1287.12c-0.48-32.9-10.84-64.73-27.53-92.26
				c-8.34-13.81-18.25-26.61-29.26-38.31c-11.02-11.71-23.14-22.35-36.1-31.74c-12.98-9.36-26.67-17.72-40.96-24.8
				c-14.28-7.08-29.08-13.08-44.22-17.93c-30.31-9.63-61.91-15.05-93.76-15.94c-31.84-0.84-63.9,2.29-95.08,10.37
				c-31.15,8.05-61.47,20.85-89.13,39.01c-27.58,18.14-52.54,41.86-71.18,71.1c-9.27,14.61-16.82,30.63-22.1,47.59
				c-5.25,16.97-8.14,34.87-8.46,52.91c-0.26,18.04,2.04,36.16,6.79,53.51c4.78,17.34,11.94,33.89,20.86,49.15
				c8.97,15.25,19.71,29.19,31.59,41.78c11.91,12.57,25.05,23.68,38.9,33.5c27.76,19.62,58.57,33.62,90.38,42.54
				c31.85,8.84,64.76,12.61,97.42,11.57c32.67-1.01,65.1-6.89,96.05-17.38c30.92-10.55,60.37-25.91,86.53-45.95
				c13.07-10.02,25.24-21.3,36.25-33.64c11-12.33,20.79-25.84,28.8-40.34c7.99-14.51,14.36-29.91,18.46-45.89
				c2.05-7.99,3.6-16.09,4.57-24.25c0.49-4.08,0.82-8.18,1.01-12.28c0.11-2.05,0.16-4.1,0.18-6.15c0.02-1.05,0-1.95,0.01-2.94
				l-0.04-3.38V1287.12z"/>
			<path class="st4" d="M1468.62,1248.24l0.76-3.4c0.3-1.27,0.6-2.61,0.9-3.81c0.61-2.44,1.24-4.88,1.93-7.29
				c1.37-4.83,2.9-9.6,4.59-14.28c3.4-9.36,7.37-18.44,11.98-27.03c9.18-17.21,20.47-32.71,33.22-46.03
				c12.72-13.37,26.74-24.73,41.45-34.26c14.73-9.53,30.21-17.09,45.98-23.13c31.59-12.06,64.43-17.62,96.95-18.25
				c16.27-0.35,32.49,0.59,48.53,2.71c16.04,2.11,31.92,5.29,47.55,9.53c31.23,8.5,61.5,21.04,89.8,37.87
				c14.17,8.35,27.82,17.83,40.81,28.35c13.03,10.47,25.28,22.17,36.72,34.84c11.41,12.7,21.83,26.59,30.97,41.56
				c9.15,14.95,16.97,31.04,22.91,48.08c6.01,17,10.12,34.99,11.8,53.39c1.76,18.38,1.06,37.18-2.2,55.47
				c-3.19,18.31-8.91,36.13-16.85,52.6c-7.87,16.53-17.94,31.69-29.46,45.19c-11.49,13.55-24.46,25.42-38.31,35.65
				c-13.86,10.25-28.62,18.8-43.86,25.94c-30.53,14.24-63.03,22.49-95.79,25.63c-32.79,3.09-65.94,1.21-98.3-5.6
				c-32.35-6.8-64.18-18.01-94.09-34.42c-14.97-8.16-29.48-17.55-43.3-28.25c-13.82-10.7-27.03-22.59-39.2-35.93
				c-12.17-13.32-23.46-27.9-33.29-43.92c-9.81-16.01-18.2-33.41-24.47-52c-6.28-18.57-10.45-38.34-11.82-58.55
				c-1.39-20.19-0.03-40.75,4.05-60.52L1468.62,1248.24z M1500.29,1255.92c-5.71,32.28-1.87,65.74,8.77,96.42
				c5.31,15.38,12.29,30.13,20.52,44.05c8.24,13.92,17.71,27.06,28.23,39.16c10.53,12.08,21.93,23.33,34.13,33.47
				c12.19,10.14,25.08,19.33,38.5,27.49c26.89,16.23,55.79,28.65,85.78,36.68c29.98,7.98,60.93,12.13,91.96,11.24
				c31-0.86,62.1-6.57,91.68-18.1c29.51-11.54,57.59-29.12,80.71-53.52c11.52-12.21,21.66-26.17,29.84-41.56
				c8.15-15.41,14.24-32.27,17.92-49.85c3.63-17.59,4.85-35.82,3.6-53.86c-1.28-18.04-4.95-35.83-10.54-52.77
				c-5.64-16.93-13.19-32.98-22.08-47.97c-8.92-14.97-19.28-28.8-30.55-41.51c-22.6-25.43-49.15-46.06-77.6-61.94
				c-28.5-15.81-58.95-26.9-90.06-33.23c-31.12-6.37-62.92-7.9-94.18-4.6c-31.25,3.36-62,11.76-90.53,25.48
				c-14.25,6.86-27.89,15.16-40.62,24.75c-12.73,9.59-24.52,20.59-34.82,32.97c-10.28,12.39-19.2,26.02-26.08,40.72
				c-3.44,7.35-6.43,14.92-8.87,22.69c-1.23,3.88-2.3,7.82-3.26,11.79c-0.48,1.98-0.91,3.98-1.33,5.98
				c-0.22,1.02-0.37,1.91-0.56,2.87l-0.59,3.31L1500.29,1255.92z"/>
			<path class="st5" d="M1663.62,997.42c18.21-10.14,38.04-17.49,58.38-21.7c20.34-4.23,41.13-5.24,61.4-3.57
				c20.29,1.64,40.06,5.98,58.9,12.28c18.85,6.31,36.75,14.67,53.69,24.34c16.95,9.67,32.8,20.9,47.66,33.15
				c14.87,12.24,28.66,25.62,41.37,39.87c25.52,28.43,46.51,60.45,63.32,94.31c16.83,33.87,29.04,70.02,36.24,107.17
				c7.15,37.15,9.17,75.45,4.67,113.28c-2.27,18.89-6.09,37.67-11.86,55.91c-5.76,18.24-13.4,35.97-23.17,52.53
				c-9.71,16.58-21.5,32.03-35.33,45.45c-13.75,13.48-29.53,24.87-46.58,33.61c-17.02,8.8-35.32,14.93-53.99,18.21
				c-18.66,3.37-37.67,3.95-56.31,2.13c-18.65-1.72-36.95-5.8-54.55-11.67c-17.61-5.85-34.55-13.43-50.64-22.44
				c-16.06-9.04-31.43-19.27-45.81-30.71c-14.43-11.39-28.04-23.78-40.7-37.09c-25.43-26.52-47.25-56.46-65.39-88.59
				c-9.06-16.08-17.16-32.74-24.25-49.89c-7.1-17.15-13.1-34.83-17.83-52.93c-9.53-36.16-14.32-74.08-12.3-112.46
				c1.03-19.17,3.63-38.45,8.43-57.46c4.81-18.99,11.61-37.73,20.82-55.61c9.14-17.89,20.89-34.8,34.99-49.85
				c7.03-7.55,14.73-14.52,22.9-20.94c4.09-3.21,8.31-6.25,12.64-9.14c2.16-1.45,4.36-2.85,6.58-4.21c1.08-0.68,2.32-1.39,3.47-2.08
				l3.11-1.8L1663.62,997.42z M1681.09,1030.27l-3.08,1.6c-0.89,0.48-1.72,0.9-2.65,1.44c-1.84,1.02-3.68,2.07-5.48,3.17
				c-3.61,2.18-7.16,4.5-10.6,6.96c-6.89,4.92-13.42,10.38-19.59,16.27c-12.35,11.8-22.99,25.54-31.99,40.44
				c-8.99,14.92-16.15,31.1-21.62,47.91c-5.48,16.82-9.4,34.26-11.7,51.99c-4.61,35.46-3.27,71.88,3.18,107.41
				c6.51,35.53,17.97,70.28,33.96,102.9c15.96,32.63,36.4,63.16,60.89,90.2c24.54,26.95,53.17,50.46,85.29,68.23
				c16.06,8.85,32.91,16.38,50.46,21.99c17.55,5.58,35.73,9.36,54.18,10.79c18.44,1.37,37.12,0.37,55.3-3.35
				c18.17-3.76,35.76-10.29,51.96-19.31c16.17-9.07,30.88-20.62,43.53-34.01c12.61-13.43,23.21-28.63,31.64-44.84
				c16.83-32.52,25.38-68.59,27.53-104.52c2.13-36.01-1.97-72.05-10.8-106.59c-8.82-34.59-22.58-67.64-39.81-98.55
				c-17.29-30.9-38.56-59.34-62.96-84.47c-12.23-12.54-25.31-24.18-39.12-34.78c-13.81-10.61-28.45-20.02-43.65-28.24
				c-15.21-8.19-31.11-14.95-47.41-20.1c-16.3-5.15-33.01-8.68-49.83-10.17c-33.57-3.04-67.74,2.22-97.77,17.72L1681.09,1030.27z"/>
			<path class="st0" d="M1672.22,1595.73l-2.65-1.88c-0.98-0.72-2.04-1.46-2.96-2.16c-1.89-1.42-3.76-2.86-5.59-4.36
				c-3.67-2.98-7.25-6.11-10.7-9.39c-6.89-6.56-13.36-13.63-19.21-21.23c-11.74-15.15-21.36-31.99-28.65-49.67
				c-7.35-17.66-12.57-36.05-16.03-54.59c-3.45-18.56-4.98-37.29-5.12-55.83c-0.26-37.13,5.42-73.51,15.17-107.98
				c4.86-17.26,10.79-34.06,17.68-50.29c6.87-16.24,14.61-31.96,23.17-47.07c17.13-30.2,37.39-58.12,60.67-82.59
				c11.6-12.28,23.99-23.64,37.06-33.98c13.04-10.4,26.88-19.59,41.28-27.6c14.42-7.98,29.55-14.54,45.18-19.41
				c15.62-4.88,31.79-8.01,48.18-8.83c16.37-0.92,32.98,0.47,49.17,4.56c16.2,4,31.97,10.72,46.51,19.97
				c14.57,9.19,27.92,20.89,39.43,34.51c11.57,13.56,21.28,29,29.12,45.43c7.89,16.42,13.88,33.87,18.21,51.73
				c4.33,17.87,6.94,36.15,8.19,54.49c2.45,36.71-0.82,73.59-8.53,109.12c-7.75,35.54-19.85,69.88-35.9,101.82
				c-16.03,31.93-35.65,61.9-59.09,88.2c-11.68,13.18-24.27,25.48-37.76,36.64c-13.48,11.15-27.79,21.3-42.99,29.87
				c-15.19,8.58-31.18,15.85-47.92,21.1c-16.73,5.24-34.19,8.54-52.01,9.23c-17.79,0.71-35.94-1.2-53.57-6.18
				c-17.62-4.97-34.69-12.94-50.22-23.54L1672.22,1595.73z M1688.79,1564.81c25.67,16.29,55.36,22.9,84.84,21.46
				c14.77-0.7,29.53-3.36,43.99-7.6c14.46-4.25,28.64-10.05,42.27-17.29c13.61-7.25,26.8-15.69,39.29-25.31
				c12.49-9.62,24.39-20.28,35.58-31.83c22.33-23.17,42.05-49.67,58.39-78.72c16.29-29.06,29.62-60.35,38.69-93.34
				c9.09-32.94,14.08-67.54,13.63-102.39c-0.47-34.78-6.54-69.96-19.99-102.1c-6.74-16.02-15.41-31.16-25.92-44.68
				c-10.54-13.49-22.96-25.29-36.75-34.76c-13.82-9.42-28.95-16.51-44.7-20.94c-15.76-4.39-32.06-6.19-48.24-5.69
				c-16.19,0.55-32.25,3.4-47.82,8c-15.57,4.64-30.61,11.15-45,18.98c-28.8,15.73-54.77,37.14-77.29,62.06
				c-22.48,25-41.57,53.56-56.81,84.34c-15.27,30.77-26.65,63.79-33.75,97.8c-7.04,34-9.63,69.09-6.99,103.52
				c1.32,17.21,4.06,34.22,8.2,50.69c4.13,16.47,9.76,32.4,17.03,47.2c7.29,14.78,16.06,28.52,26.4,40.45
				c5.17,5.97,10.67,11.52,16.5,16.58c2.91,2.53,5.92,4.92,9,7.19c1.53,1.14,3.09,2.23,4.67,3.3c0.8,0.56,1.51,1,2.27,1.5l2.63,1.69
				L1688.79,1564.81z"/>
		</g>
	</g>
</g>
</svg>
